<svg width="260" height="249" viewBox="0 0 260 249" fill="none" xmlns="http://www.w3.org/2000/svg">
<path d="M58.8145 236.976C11.6643 205.516 2.00001 182.9 2 128.252C12.5 67.0086 34.2331 37.3292 103.5 10.9475C171.233 -7.89657 211.5 -0.830002 231.5 69.7939C233.15 90.7915 237.535 111.212 228.733 123.971M58.8145 236.976L180.341 208.073C162.516 162.377 147.492 166.556 114.263 212.116C102.852 168.681 88.5318 185.434 58.8145 236.976ZM58.8145 236.976C75.1746 247.689 86.2229 249.251 110.011 242.368L180.341 212.116V227.691C252.887 204.056 266.437 170.184 251.733 143.078C245.444 131.483 240.922 127.78 228.733 123.971M228.733 123.971C225.651 135.23 214.516 151.502 194.763 161.126C178.14 158.015 171.233 152.708 171.233 137.632C172.733 122.557 194.651 118.741 228.733 123.971ZM34.2331 107.482C61.6093 114.529 77.6508 116.866 110.233 111.722C152.951 104.866 169.854 94.117 194.763 69.7938L114.498 88.6379L34.2331 107.482ZM106.233 76.8604C119.901 83.804 123.259 88.4981 112.733 99.9443C95.8996 93.6269 93.009 88.8497 106.233 76.8604Z" stroke="black" stroke-width="4"/>
<path d="M33.5542 107.362C44.9289 80.934 154.878 45.7954 194.763 68.4243" stroke="black" stroke-width="4"/>
<path d="M109.908 111.256L104.947 200.812C117.241 170.469 128.006 157.835 156.676 146" stroke="black" stroke-width="4"/>
</svg>
